<?xml version="1.0" encoding="iso-8859-1"?>
<!-- Generator: Adobe Illustrator 16.0.0, SVG Export Plug-In . SVG Version: 6.00 Build 0)  -->
<!DOCTYPE svg PUBLIC "-//W3C//DTD SVG 1.1//EN" "http://www.w3.org/Graphics/SVG/1.1/DTD/svg11.dtd">
<svg version="1.1" id="Capa_1" xmlns="http://www.w3.org/2000/svg" xmlns:xlink="http://www.w3.org/1999/xlink" x="0px" y="0px"
	 width="63.55px" height="63.55px" viewBox="0 0 63.55 63.55" style="enable-background:new 0 0 63.55 63.55;" xml:space="preserve"
	>
<g>
	<path d="M62.725,32.603l0.825-0.826l-0.825-0.823c0,0,0,0,0-0.002L32.358,0.584c-0.455-0.455-1.196-0.455-1.651,0
		s-0.455,1.196,0,1.651L59.08,30.608H1.168C0.523,30.608,0,31.133,0,31.776c0,0.646,0.523,1.168,1.168,1.168H59.08L30.709,61.316
		c-0.455,0.454-0.455,1.195,0,1.651c0.229,0.229,0.528,0.34,0.827,0.34s0.598-0.114,0.827-0.34L62.725,32.603
		C62.725,32.604,62.725,32.604,62.725,32.603z"/>
</g>
<g>
</g>
<g>
</g>
<g>
</g>
<g>
</g>
<g>
</g>
<g>
</g>
<g>
</g>
<g>
</g>
<g>
</g>
<g>
</g>
<g>
</g>
<g>
</g>
<g>
</g>
<g>
</g>
<g>
</g>
</svg>